<svg id="svg3075" xmlns:rdf="http://www.w3.org/1999/02/22-rdf-syntax-ns#" style="position:absolute;top:0;right:0;" xmlns="http://www.w3.org/2000/svg" fill="#151513" height="80" width="80" version="1.1" xmlns:cc="http://creativecommons.org/ns#" xmlns:dc="http://purl.org/dc/elements/1.1/" viewBox="0 0 250 250">
	<path id="path3092" fill="#000" d="M0,0l36.125,36.156c0.017,0.008,0.044,0.023,0.063,0.032,0.379,0.173,1.055,0.411,1.312-0.032l2.312-2.062c-4.09-3.071-2.124-5.969-2.124-5.969,1.098-2.176,0.843-3.469,0.843-3.469-0.179-2.255,1.031-0.594,1.031-0.594,1.178,1.677,0.407,3.563,0.407,3.563-0.923,2.497,0.424,4.117,1.656,4.875l0.625-0.562c0.998-0.579,1.986-0.822,2.625-0.782-2.335-3.673-4.301-7.973,1.469-13.062,1.697-1.497,3.302-2.058,5.218-1.938,0.36-0.618,1.109-2.184,4.063-3.281,0,0,1.559,1.089,1.937,5.281,1.238,0.719,2.459,1.736,3.657,3.094,1.197,1.358,2.066,2.714,2.625,4.031,4.411,1.238,5.281,2.563,5.281,2.563-1.438,2.475-3.111,3.352-3.75,3.312-0.12,1.916-0.834,3.441-2.531,4.938-5.43,4.79-9.772,2.619-13.125-0.156-0.06,0.958-0.455,2.24-1.813,3.437l-4.062,3.25c-0.278,0.245-0.001,1.016,0.125,1.344l36.031,36.031v-80h-80z" transform="scale(3.125,3.125)"/>
</svg>
